<svg width="1080" height="1920" viewBox="0 0 1080 1920" fill="none" xmlns="http://www.w3.org/2000/svg">
  <rect width="1080" height="1920" fill="#F5FAFA"/>
  <rect width="1080" height="286" fill="#12343B"/>
  <g transform="translate(78 68)">
    <rect width="112" height="112" rx="34" fill="#0E252A"/>
    <path d="M56 18C41 36 30 49 30 66C30 84 41 99 56 99C71 99 82 84 82 66C82 49 71 36 56 18Z" fill="#E65555"/>
    <path d="M21 68H39L45 58L54 80L63 62H88" stroke="#FFFFFF" stroke-width="6" stroke-linecap="round" stroke-linejoin="round"/>
  </g>
  <text x="222" y="126" font-family="Segoe UI, Arial, sans-serif" font-size="60" font-weight="800" fill="#F5FAFA">Tensionote</text>
  <text x="222" y="184" font-family="Segoe UI, Arial, sans-serif" font-size="28" fill="#CBE0DE">Quick Entry in Seconds</text>
  <text x="78" y="352" font-family="Segoe UI, Arial, sans-serif" font-size="30" font-weight="700" fill="#12343B">Record systolic, diastolic, and heart rate right from home.</text>
  <rect x="78" y="398" width="924" height="700" rx="44" fill="white"/>
  <text x="126" y="482" font-family="Segoe UI, Arial, sans-serif" font-size="42" font-weight="700" fill="#12343B">Quick Entry</text>
  <rect x="126" y="548" width="384" height="190" rx="28" fill="#F4F7F7"/>
  <rect x="570" y="548" width="384" height="190" rx="28" fill="#F4F7F7"/>
  <rect x="126" y="786" width="828" height="190" rx="28" fill="#F4F7F7"/>
  <text x="154" y="604" font-family="Segoe UI, Arial, sans-serif" font-size="26" fill="#5B777C">Systolic</text>
  <text x="598" y="604" font-family="Segoe UI, Arial, sans-serif" font-size="26" fill="#5B777C">Diastolic</text>
  <text x="154" y="842" font-family="Segoe UI, Arial, sans-serif" font-size="26" fill="#5B777C">Heart Rate</text>
  <text x="154" y="694" font-family="Segoe UI, Arial, sans-serif" font-size="78" font-weight="700" fill="#12343B">128</text>
  <text x="598" y="694" font-family="Segoe UI, Arial, sans-serif" font-size="78" font-weight="700" fill="#12343B">82</text>
  <text x="154" y="932" font-family="Segoe UI, Arial, sans-serif" font-size="78" font-weight="700" fill="#12343B">76</text>
  <rect x="126" y="1014" width="828" height="48" rx="24" fill="#F3E6E6"/>
  <text x="154" y="1046" font-family="Segoe UI, Arial, sans-serif" font-size="24" fill="#A03B3B">Systolic pressure is high.</text>
  <rect x="126" y="1126" width="828" height="112" rx="28" fill="#12343B"/>
  <text x="540" y="1196" text-anchor="middle" font-family="Segoe UI, Arial, sans-serif" font-size="34" font-weight="700" fill="white">Save Now</text>
  <rect x="78" y="1206" width="924" height="620" rx="44" fill="white"/>
  <text x="126" y="1290" font-family="Segoe UI, Arial, sans-serif" font-size="40" font-weight="700" fill="#12343B">Last 2 Weeks Trend</text>
  <path d="M130 1668H948" stroke="#D7E7E5" stroke-width="4"/>
  <path d="M130 1574H948" stroke="#F2D3D3" stroke-width="4"/>
  <path d="M130 1614C210 1568 298 1538 380 1562C480 1590 556 1468 636 1504C740 1550 828 1436 948 1478" stroke="#E65555" stroke-width="10" stroke-linecap="round"/>
  <path d="M130 1692C210 1664 298 1646 380 1658C474 1672 560 1596 636 1626C742 1666 830 1568 948 1594" stroke="#177E89" stroke-width="10" stroke-linecap="round"/>
</svg>
