<svg width="1080" height="1920" viewBox="0 0 1080 1920" fill="none" xmlns="http://www.w3.org/2000/svg">
  <rect width="1080" height="1920" fill="#F5FAFA"/>
  <rect width="1080" height="286" fill="#12343B"/>
  <g transform="translate(78 68)">
    <rect width="112" height="112" rx="34" fill="#0E252A"/>
    <path d="M56 18C41 36 30 49 30 66C30 84 41 99 56 99C71 99 82 84 82 66C82 49 71 36 56 18Z" fill="#E65555"/>
    <path d="M21 68H39L45 58L54 80L63 62H88" stroke="#FFFFFF" stroke-width="6" stroke-linecap="round" stroke-linejoin="round"/>
  </g>
  <text x="222" y="126" font-family="Segoe UI, Arial, sans-serif" font-size="60" font-weight="800" fill="#F5FAFA">Tensionote</text>
  <text x="222" y="184" font-family="Segoe UI, Arial, sans-serif" font-size="28" fill="#CBE0DE">See The Last 2 Weeks At A Glance</text>
  <text x="78" y="352" font-family="Segoe UI, Arial, sans-serif" font-size="30" font-weight="700" fill="#12343B">Highlight high systolic and diastolic readings without making users guess.</text>
  <rect x="78" y="398" width="924" height="950" rx="44" fill="white"/>
  <text x="126" y="482" font-family="Segoe UI, Arial, sans-serif" font-size="42" font-weight="700" fill="#12343B">Trend</text>
  <line x1="130" y1="626" x2="948" y2="626" stroke="#F1C8C8" stroke-width="4"/>
  <line x1="130" y1="746" x2="948" y2="746" stroke="#F4DFAE" stroke-width="4"/>
  <line x1="130" y1="1066" x2="948" y2="1066" stroke="#D6E8E6" stroke-width="4"/>
  <path d="M130 838C214 810 292 696 380 728C486 766 562 616 644 662C736 712 828 548 948 598" stroke="#E65555" stroke-width="10" stroke-linecap="round"/>
  <path d="M130 964C214 938 292 868 380 884C482 904 566 768 644 814C736 868 828 742 948 778" stroke="#177E89" stroke-width="10" stroke-linecap="round"/>
  <circle cx="644" cy="662" r="14" fill="#E65555"/>
  <circle cx="948" cy="598" r="14" fill="#E65555"/>
  <circle cx="644" cy="814" r="14" fill="#177E89"/>
  <text x="126" y="1198" font-family="Segoe UI, Arial, sans-serif" font-size="24" fill="#5B777C">Red line: systolic. Blue line: diastolic.</text>
  <rect x="126" y="1238" width="828" height="64" rx="24" fill="#F3E6E6"/>
  <text x="154" y="1280" font-family="Segoe UI, Arial, sans-serif" font-size="24" fill="#A03B3B">Systolic was high 3 times in the selected trend.</text>
</svg>
