<svg width="1080" height="1920" viewBox="0 0 1080 1920" fill="none" xmlns="http://www.w3.org/2000/svg">
  <rect width="1080" height="1920" fill="#F5FAFA"/>
  <rect width="1080" height="286" fill="#12343B"/>
  <g transform="translate(78 68)">
    <rect width="112" height="112" rx="34" fill="#0E252A"/>
    <path d="M56 18C41 36 30 49 30 66C30 84 41 99 56 99C71 99 82 84 82 66C82 49 71 36 56 18Z" fill="#E65555"/>
    <path d="M21 68H39L45 58L54 80L63 62H88" stroke="#FFFFFF" stroke-width="6" stroke-linecap="round" stroke-linejoin="round"/>
  </g>
  <text x="222" y="126" font-family="Segoe UI, Arial, sans-serif" font-size="60" font-weight="800" fill="#F5FAFA">Tensionote</text>
  <text x="222" y="184" font-family="Segoe UI, Arial, sans-serif" font-size="28" fill="#CBE0DE">Export Clean Reports</text>
  <text x="78" y="352" font-family="Segoe UI, Arial, sans-serif" font-size="30" font-weight="700" fill="#12343B">Choose 7, 14, 30 days or a custom range, then share by email.</text>
  <rect x="78" y="398" width="924" height="1420" rx="44" fill="white"/>
  <text x="126" y="482" font-family="Segoe UI, Arial, sans-serif" font-size="42" font-weight="700" fill="#12343B">Report</text>
  <rect x="126" y="546" width="180" height="72" rx="26" fill="#12343B"/>
  <rect x="326" y="546" width="180" height="72" rx="26" fill="#F4F7F7"/>
  <rect x="526" y="546" width="180" height="72" rx="26" fill="#F4F7F7"/>
  <rect x="726" y="546" width="228" height="72" rx="26" fill="#F4F7F7"/>
  <text x="216" y="592" text-anchor="middle" font-family="Segoe UI, Arial, sans-serif" font-size="26" font-weight="700" fill="white">30 Days</text>
  <text x="416" y="592" text-anchor="middle" font-family="Segoe UI, Arial, sans-serif" font-size="26" font-weight="700" fill="#12343B">14 Days</text>
  <text x="616" y="592" text-anchor="middle" font-family="Segoe UI, Arial, sans-serif" font-size="26" font-weight="700" fill="#12343B">7 Days</text>
  <text x="840" y="592" text-anchor="middle" font-family="Segoe UI, Arial, sans-serif" font-size="26" font-weight="700" fill="#12343B">Custom</text>
  <g transform="translate(126 682)">
    <rect width="828" height="420" rx="32" fill="#F4F7F7"/>
    <text x="28" y="64" font-family="Segoe UI, Arial, sans-serif" font-size="34" font-weight="700" fill="#12343B">Summary</text>
    <text x="28" y="138" font-family="Segoe UI, Arial, sans-serif" font-size="26" fill="#5B777C">Record Count</text>
    <text x="628" y="138" font-family="Segoe UI, Arial, sans-serif" font-size="26" fill="#12343B">42</text>
    <text x="28" y="214" font-family="Segoe UI, Arial, sans-serif" font-size="26" fill="#5B777C">Average Systolic</text>
    <text x="628" y="214" font-family="Segoe UI, Arial, sans-serif" font-size="26" fill="#12343B">126</text>
    <text x="28" y="290" font-family="Segoe UI, Arial, sans-serif" font-size="26" fill="#5B777C">Average Diastolic</text>
    <text x="628" y="290" font-family="Segoe UI, Arial, sans-serif" font-size="26" fill="#12343B">81</text>
    <text x="28" y="366" font-family="Segoe UI, Arial, sans-serif" font-size="26" fill="#5B777C">Average Heart Rate</text>
    <text x="628" y="366" font-family="Segoe UI, Arial, sans-serif" font-size="26" fill="#12343B">75</text>
  </g>
  <rect x="126" y="1158" width="828" height="104" rx="28" fill="#12343B"/>
  <text x="540" y="1224" text-anchor="middle" font-family="Segoe UI, Arial, sans-serif" font-size="34" font-weight="700" fill="white">Export PDF</text>
  <rect x="126" y="1290" width="828" height="104" rx="28" fill="#FFFFFF"/>
  <rect x="126.5" y="1290.5" width="827" height="103" rx="27.5" stroke="#C6DDDA"/>
  <text x="540" y="1356" text-anchor="middle" font-family="Segoe UI, Arial, sans-serif" font-size="34" font-weight="700" fill="#12343B">Share by Email</text>
</svg>
